<svg width="172" height="64" viewBox="0 0 172 64" fill="none" xmlns="http://www.w3.org/2000/svg">
<rect width="172" height="64" rx="4" fill="#222222"/>
<path d="M15.9879 49V43.75L32.4879 21.7273H16.0561V14.0909H44.5561V19.3409L28.0561 41.3636H44.4879V49H15.9879ZM49.1797 49V14.0909H74.3388V21.7273H58.657V27.7273H73.0433V35.3636H58.657V41.3636H74.2706V49H49.1797ZM78.0845 21.7273V14.0909H108.425V21.7273H97.9254V49H88.5845V21.7273H78.0845ZM121.469 14.0909V49H111.992V14.0909H121.469ZM156.165 14.0909V49H148.256L135.643 30.6591H135.438V49H125.961V14.0909H134.006L146.415 32.3636H146.688V14.0909H156.165Z" fill="white"/>
</svg>
